<svg height="512pt" viewBox="-11 0 512 512" width="512pt" xmlns="http://www.w3.org/2000/svg"><path d="m435.199219 421.421875c34.261719-42.140625 54.804687-95.878906 54.804687-154.421875 0-135.3125-109.691406-245.003906-245-245.003906-135.3125 0-245.003906 109.691406-245.003906 245.003906 0 58.542969 20.546875 112.28125 54.804688 154.425781zm0 0" fill="#4ecdf9"/><path d="m314.898438 170.320312c.386718 5.28125.238281 10.265626-.042969 14.132813-.324219 4.472656.742187 8.957031 3.15625 12.75 1.429687 2.238281 2.558593 4.613281 3.460937 6.957031 1.117188 2.914063 1.910156 5.921875 2.398438 8.980469 2.59375-1.257813 6.296875-2.625 9.46875-2.175781.386718-13.445313 1.628906-27.941406 1.628906-27.941406.472656-2.332032.863281-4.621094 1.175781-6.871094-7.039062-2.207032-14.125-4.15625-21.246093-5.832032zm0 0" fill="#8e4739"/><path d="m175.019531 171.667969c-5.726562 1.460937-11.425781 3.09375-17.097656 4.902343l-3.035156.96875c.125 17.367188 3.800781 33.363282 3.800781 33.363282 2.632812.175781 5.390625 1.246094 7.449219 2.238281.5-3.132813 1.324219-6.21875 2.484375-9.199219.882812-2.273437 1.988281-4.566406 3.371094-6.738281 2.402343-3.761719 3.492187-8.199219 3.167968-12.636719-.265625-3.558594-.417968-8.074218-.140625-12.898437zm0 0" fill="#8e4739"/><path d="m339.003906 211.710938c-3.925781-3.597657-11.75-1.773438-15.132812.429687.742187 4.613281.785156 9.335937.144531 13.996094l-3.992187 29.070312c0 2.34375-.074219 4.644531-.207032 6.902344 9.730469 2.9375 14.566406-5.800781 15.378906-11.796875.351563-2.582031.925782-5.128906 1.71875-7.609375 2.589844-8.085937 11.929688-21.972656 2.089844-30.992187zm0 0" fill="#ffaa7b"/><path d="m331.613281 238.269531c-3.539062 0-6.675781-1.695312-8.671875-4.304687l-2.917968 21.242187c0 2.34375-.074219 4.644531-.210938 6.902344 9.734375 2.9375 14.570312-5.800781 15.382812-11.796875.351563-2.582031.925782-5.125 1.71875-7.609375.828126-2.585937 2.347657-5.765625 3.707032-9.1875-1.964844 2.867187-5.265625 4.753906-9.007813 4.753906zm0 0" fill="#fc9b6b"/><path d="m151 211.710938c3.929688-3.597657 11.75-1.773438 15.132812.429687-.742187 4.613281-.78125 9.335937-.144531 13.996094l3.992188 29.070312c0 2.34375.074219 4.644531.210937 6.902344-9.734375 2.9375-14.566406-5.800781-15.382812-11.796875-.351563-2.582031-.921875-5.128906-1.71875-7.609375-2.589844-8.085937-11.929688-21.972656-2.089844-30.992187zm0 0" fill="#ffaa7b"/><path d="m169.980469 255.207031-2.914063-21.242187c-1.996094 2.609375-5.132812 4.304687-8.671875 4.304687-3.742187 0-7.042969-1.886719-9.007812-4.753906 1.359375 3.421875 2.875 6.601563 3.703125 9.1875.796875 2.480469 1.371094 5.027344 1.71875 7.609375.816406 5.996094 5.652344 14.734375 15.382812 11.796875-.136718-2.257813-.210937-4.558594-.210937-6.902344zm0 0" fill="#fc9b6b"/><path d="m188.929688 485.214844c0-22.039063 17.054687-39.90625 38.097656-39.90625h3.234375c20.535156 0 37.265625-20.828125 38.058593-42.320313-13.523437 3.363281-23.105468 3.457031-23.316406 3.457031-.472656 0-47.433594-.417968-80.964844-36.550781-.402343-.433593-.410156-1.117187-.015624-1.585937l.195312-.238282c-14.492188 4.738282-28.246094 10.972657-41.828125 18.632813-7.632813 4.304687-11.082031 6.816406-17.5625 7.347656-23.835937 1.949219-40.292969 11.898438-51.632813 25.371094 33.738282 42.398437 81.234376 73.359375 135.734376 86.125zm0 0" fill="#b8dcf2"/><path d="m245.003906 512c77.6875 0 146.921875-36.167969 191.808594-92.578125-11.34375-13.46875-27.800781-23.421875-51.636719-25.371094-6.476562-.53125-9.925781-3.042969-17.5625-7.347656-13.582031-7.660156-27.332031-13.894531-41.828125-18.628906l.199219.234375c.390625.46875.382813 1.152344-.019531 1.585937-19.199219 20.691407-42.839844 29.671875-59.605469 33.566407v1.898437c0 21.039063-17.058594 38.097656-38.097656 38.097656h-3.234375c-21.039063 0-38.097656 17.058594-38.097656 38.097657v23.503906c18.617187 4.523437 38.0625 6.941406 58.074218 6.941406zm0 0" fill="#deeefa"/><path d="m303.074219 356.742188c-5.816407-10.136719-7.507813-24.238282-7.867188-34.699219-5.070312 5.90625-10.390625 10.847656-15.476562 14.796875-9.910157 7.691406-22.132813 11.871094-34.726563 11.871094s-24.820312-4.179688-34.726562-11.871094c-5.085938-3.949219-10.410156-8.890625-15.480469-14.796875-.359375 10.457031-2.050781 24.5625-7.867187 34.699219 33.679687 26.769531 82.46875 26.769531 116.144531 0zm0 0" fill="#ffaa7b"/><path d="m194.796875 322.042969c-.359375 10.460937-2.050781 24.5625-7.867187 34.699219 16.039062 12.75 35.507812 19.414062 55.140624 20.019531 1.789063-11.722657 1.527344-20.371094 1.527344-20.371094l-.359375-7.714844c-11.964843-.371093-23.519531-4.5-32.960937-11.835937-5.085938-3.949219-10.410156-8.890625-15.480469-14.796875zm0 0" fill="#fc9b6b"/><path d="m319.011719 196.203125c-2.414063-3.792969-3.480469-8.277344-3.15625-12.75.28125-3.867187.429687-8.851563.042969-14.132813-46.816407-11.03125-95.152344-10.589843-141.878907 1.347657-.277343 4.828125-.121093 9.339843.136719 12.898437.328125 4.4375-.765625 8.875-3.164062 12.636719-1.382813 2.171875-2.488282 4.464844-3.371094 6.738281-2.871094 7.371094-3.707032 15.363282-2.632813 23.191406l3.992188 29.074219c0 41.804688 22.316406 70.214844 41.296875 84.957031 9.90625 7.691407 22.132812 11.871094 34.726562 11.871094 12.589844 0 24.816406-4.179687 34.722656-11.871094 18.984376-14.742187 41.296876-43.152343 41.296876-84.957031l3.992187-29.070312c1.0625-7.75.253906-15.664063-2.546875-22.976563-.898438-2.34375-2.027344-4.71875-3.457031-6.957031zm0 0" fill="#fb9"/><path d="m242.226562 340.160156c-13.714843-14.738281-29.839843-43.148437-29.839843-84.953125l-2.886719-29.078125c-.777344-7.824218-.171875-44.632812 1.902344-52.003906.636718-2.273438 1.4375-4.566406 2.4375-6.734375.613281-1.335937 1.105468-2.761719 1.476562-4.238281-13.851562 1.527344-27.644531 4.023437-41.296875 7.511718-.277343 4.828126-.125 9.34375.136719 12.898438.328125 4.441406-.765625 8.878906-3.164062 12.640625-1.382813 2.167969-2.488282 4.464844-3.371094 6.738281-2.871094 7.367188-3.707032 15.363282-2.632813 23.1875l3.992188 29.078125c0 41.800781 22.316406 70.214844 41.296875 84.953125 9.90625 7.695313 22.132812 11.875 34.726562 11.875 4.390625 0 8.734375-.519531 12.953125-1.507812-5.691406-1.847656-11.066406-5.355469-15.730469-10.367188zm0 0" fill="#ffaa7b"/><path d="m327.359375 367.15625-8.648437-10.308594c-4.175782-4.980468-11.542969-5.660156-16.625-1.605468-17.007813 13.566406-38.03125 20.289062-59.039063 19.863281 11.332031 1.914062 19.976563 11.660156 19.976563 23.511719v7.457031c17.078124-3.421875 43.171874-12.234375 64.257812-34.960938 1.023438-1.101562 1.042969-2.804687.078125-3.957031zm0 0" fill="#ed3346"/><path d="m263.023438 398.617188v7.449218c9.074218-1.816406 20.691406-5.152344 32.753906-11.296875-.523438.054688-1.058594.082031-1.601563.082031-8.835937 0-16-7.164062-16-16 0-5.0625 2.359375-9.570312 6.03125-12.503906-12.921875 6.09375-27.0625 9.039063-41.195312 8.75 11.347656 1.898438 20.011719 11.652344 20.011719 23.519532zm0 0" fill="#db2640"/><path d="m244.113281 375.125c-19.863281-.167969-39.773437-6.734375-56.332031-19.996094-5.019531-4.019531-12.355469-3.207031-16.488281 1.71875l-8.644531 10.308594c-.96875 1.152344-.949219 2.855469.074218 3.957031 34.453125 37.128907 82.28125 37.128907 82.28125 37.128907s8.703125-.003907 21.355469-2.882813v-7.988281c0-12.285156-9.957031-22.144532-22.246094-22.246094zm0 0" fill="#f94862"/><path d="m235.296875 481.871094c0 6.984375-5.664063 12.648437-12.652344 12.648437s-12.652343-5.664062-12.652343-12.648437c0-6.988282 5.664062-12.652344 12.652343-12.652344s12.652344 5.664062 12.652344 12.652344zm0 0" fill="#89c2e5"/><path d="m150.425781 177.640625 6.496094-2.070313c59.734375-19.042968 122.789063-18.9375 182.4375.273438-1.945313-16.660156-2.632813-43.429688 7.609375-67.429688-4.523438 1.429688-9.328125 2.207032-14.320312 2.207032-10.246094 0-19.730469-3.242188-27.492188-8.753906-2.507812-1.785157-5.980469-1.175782-7.878906 1.25-11.910156 15.253906-30.457032 25.066406-51.308594 25.066406-20.855469 0-39.402344-9.8125-51.3125-25.066406-1.894531-2.425782-5.371094-3.035157-7.878906-1.25-7.761719 5.511718-17.246094 8.753906-27.492188 8.753906-5.832031 0-11.417968-1.058594-16.578125-2.984375 10.976563 25.078125 9.839844 53.347656 7.71875 70.003906zm0 0" fill="#b8dcf2"/><path d="m211.035156 118.007812c-6.273437-4-11.816406-9.042968-16.378906-14.890624-1.894531-2.425782-5.371094-3.035157-7.878906-1.25-7.761719 5.511718-17.246094 8.753906-27.492188 8.753906-5.832031 0-11.417968-1.058594-16.578125-2.984375 10.976563 25.078125 9.84375 53.347656 7.722657 70.003906l6.492187-2.070313c19.199219-6.121093 38.742187-10.25 58.40625-12.417968.742187-12.972656.191406-29.191406-4.292969-45.144532zm0 0" fill="#89c2e5"/><path d="m156.921875 175.570312c59.734375-19.042968 122.789063-18.9375 182.4375.273438-.714844-6.117188-1.253906-13.601562-1.152344-21.8125-59.308593-18.839844-121.933593-18.828125-181.285156.089844l-5.109375 1.628906c.015625 8.34375-.617188 15.875-1.382812 21.890625zm0 0" fill="#ed3346"/><path d="m215.144531 141.730469c-34.277343 3.792969-61.03125 13.398437-63.332031 14.019531.011719 7.238281-.464844 14.664062-1.382812 21.890625 13.46875-5.023437 37.585937-11.136719 64.898437-14.488281.371094-6.476563.417969-13.765625-.183594-21.421875zm0 0" fill="#db2640"/><path d="m153.6875 202.273438c-5.71875 0-11.03125-3.664063-12.859375-9.40625-2.261719-7.105469 1.660156-14.699219 8.765625-16.960938l7.328125-2.335938c60.113281-19.164062 123.597656-18.941406 183.582031.632813 7.089844 2.316406 10.960938 9.9375 8.644532 17.023437-2.3125 7.089844-9.9375 10.960938-17.019532 8.644532-54.570312-17.808594-112.316406-18.007813-167.007812-.574219l-7.332032 2.335937c-1.363281.433594-2.742187.640626-4.101562.640626zm0 0" fill="#deeefa"/><path d="m380.058594 61.722656c-1.644532-23.882812-21.3125-43.039062-45.226563-44.109375-11.0625-.496093-21.339843 2.792969-29.644531 8.683594-2.523438 1.789063-6 1.210937-7.90625-1.226563-11.910156-15.253906-30.460938-25.070312-51.3125-25.070312-20.855469 0-39.40625 9.816406-51.316406 25.070312-1.90625 2.4375-5.382813 3.015626-7.90625 1.226563-8.304688-5.890625-18.582032-9.179687-29.644532-8.683594-23.914062 1.070313-43.582031 20.226563-45.226562 44.109375-1.914062 27.773438 20.046875 50.898438 47.410156 50.898438 10.242188 0 19.730469-3.242188 27.492188-8.753906 2.507812-1.785157 5.980468-1.175782 7.875 1.25 11.914062 15.253906 30.460937 25.066406 51.3125 25.066406 20.851562 0 39.402344-9.8125 51.3125-25.066406 1.894531-2.425782 5.367187-3.035157 7.878906-1.25 7.761719 5.511718 17.246094 8.753906 27.492188 8.753906 27.363281 0 49.324218-23.125 47.410156-50.898438zm0 0" fill="#deeefa"/><path d="m245.003906 262.859375v4.960937c0 5.9375 4.128906 12.78125 9.925782 14.0625l3.132812.6875c12.941406 2.859376 23.59375 12.003907 28.371094 24.367188 1.417968 3.664062 6.867187 2.578125 6.769531-1.347656l-.265625-12.59375c-.324219-13.230469-9.597656-27.960938-22.503906-30.890625l-17.539063-5.152344c-3.941406-1.15625-7.890625 1.800781-7.890625 5.90625zm0 0" fill="#975242"/><path d="m318.710938 271.199219c-.429688 0-.808594.253906-.976563.648437-3.8125 8.945313-11.71875 19.714844-28.078125 23.507813-2.640625.613281-4.667969 2.6875-5.164062 5.351562-1.023438 5.507813-4.683594 14.675781-17.515626 19.210938-8.152343 2.882812-17.050781-2.246094-18.097656-10.734375-.011718-.113282-.023437-.222656-.039062-.332032-.167969-1.585937-1.496094-2.800781-3.109375-2.800781s-2.9375 1.21875-3.109375 2.800781c-.011719.109376-.023438.222657-.039063.332032-1.046875 8.488281-9.941406 13.617187-18.097656 10.734375-13.226563-4.675781-17.570313-14.273438-18.992187-19.710938-.628907-2.40625-2.609376-4.210937-5.039063-4.75-16.65625-3.703125-24.671875-14.585937-28.515625-23.609375-.167969-.394531-.546875-.648437-.976562-.648437-.65625 0-1.164063.589843-1.066407 1.238281 7.109375 46.949219 35.117188 69.183594 54.804688 79.175781 12.625 6.410157 27.621093 6.417969 40.246093.011719 19.691407-9.988281 47.714844-32.21875 54.828126-79.1875.101562-.644531-.40625-1.238281-1.0625-1.238281zm0 0" fill="#975242"/><path d="m175.214844 65.09375c0-14.703125 5.855468-28.03125 15.347656-37.800781-1.3125.121093-2.664062-.179688-3.816406-.996094-8.304688-5.890625-18.582032-9.179687-29.644532-8.683594-23.914062 1.070313-43.582031 20.230469-45.226562 44.109375-1.914062 27.773438 20.046875 50.898438 47.410156 50.898438 10.242188 0 19.730469-3.242188 27.492188-8.753906 1.140625-.8125 2.480468-1.105469 3.78125-.980469-9.492188-9.773438-15.34375-23.097657-15.34375-37.792969zm0 0" fill="#b8dcf2"/><path d="m215.417969 161.140625c-19.691407 2.164063-39.269531 6.300781-58.496094 12.429687l-7.328125 2.335938c-7.105469 2.261719-11.027344 9.855469-8.765625 16.960938 1.828125 5.742187 7.140625 9.40625 12.859375 9.40625 1.359375 0 2.738281-.207032 4.101562-.640626l7.332032-2.335937c16.945312-5.402344 34.183594-9.105469 51.527344-11.125-16.699219-14.285156-1.535157-26.78125-1.230469-27.03125zm0 0" fill="#b8dcf2"/><path d="m224.699219 351.613281c5.941406 3.015625 12.40625 4.597657 18.898437 4.777344-27.5625-12.519531-15.300781-35.695313-15.300781-35.695313v-.019531c-1.269531-.078125-2.546875-.3125-3.808594-.757812-13.226562-4.675781-17.574219-14.273438-18.996093-19.710938-.628907-2.40625-2.605469-4.210937-5.035157-4.75-16.65625-3.703125-24.671875-14.585937-28.515625-23.609375-.167968-.394531-.550781-.648437-.980468-.648437-.65625 0-1.160157.589843-1.0625 1.238281 7.109374 46.949219 35.113281 69.183594 54.800781 79.175781zm0 0" fill="#8e4739"/><path d="m245.003906 262.859375v4.960937c0 5.9375-4.128906 12.78125-9.929687 14.0625l-3.128907.6875c-12.941406 2.859376-23.59375 12.003907-28.371093 24.367188-1.417969 3.664062-6.867188 2.578125-6.769531-1.347656l.265624-12.59375c.324219-13.230469 9.59375-27.960938 22.503907-30.890625l17.539062-5.152344c3.941407-1.15625 7.890625 1.800781 7.890625 5.90625zm0 0" fill="#975242"/><path d="m222.175781 285.601562c-6.699219 0-12.125-5.425781-12.125-12.125 0-4.042968 1.988281-7.617187 5.03125-9.820312-10.515625 4.90625-17.726562 17.699219-18.011719 29.339844l-.265624 12.59375c-.097657 3.925781 5.351562 5.011718 6.769531 1.347656 3.671875-9.5 10.820312-17.089844 19.804687-21.394531-.394531.039062-.796875.058593-1.203125.058593zm0 0" fill="#8e4739"/></svg>