<?xml version="1.0" encoding="iso-8859-1"?>
<!-- Generator: Adobe Illustrator 19.0.0, SVG Export Plug-In . SVG Version: 6.00 Build 0)  -->
<svg version="1.1" id="Capa_1" xmlns="http://www.w3.org/2000/svg" xmlns:xlink="http://www.w3.org/1999/xlink" x="0px" y="0px"
	 viewBox="0 0 389.092 389.092" style="enable-background:new 0 0 389.092 389.092;" xml:space="preserve">
<g>
	<g>
		<path d="M388.609,151.183c-4.448-40.866-38.761-71.945-79.866-72.339h-0.16c-2.886,0.007-5.771,0.168-8.64,0.48
			c-17.669-55.673-77.124-86.482-132.798-68.813c-33.291,10.566-59.219,36.886-69.283,70.333c-5.751-1.283-11.627-1.927-17.52-1.92
			c-44.799,0.429-80.768,37.094-80.339,81.894c0.394,41.105,31.473,75.418,72.339,79.866v78.96h244.4v-79.04
			C361.281,235.756,393.457,195.721,388.609,151.183z"/>
	</g>
</g>
<g>
	<g>
		<path d="M308.743,335.564H72.423v40c0,4.418,3.582,8,8,8h228.4c4.418,0,8-3.582,8-8v-40H308.743z"/>
	</g>
</g>
<g>
</g>
<g>
</g>
<g>
</g>
<g>
</g>
<g>
</g>
<g>
</g>
<g>
</g>
<g>
</g>
<g>
</g>
<g>
</g>
<g>
</g>
<g>
</g>
<g>
</g>
<g>
</g>
<g>
</g>
</svg>
