<?xml version="1.0" encoding="iso-8859-1"?>
<!-- Generator: Adobe Illustrator 19.0.0, SVG Export Plug-In . SVG Version: 6.00 Build 0)  -->
<svg version="1.1" id="Capa_1" xmlns="http://www.w3.org/2000/svg" xmlns:xlink="http://www.w3.org/1999/xlink" x="0px" y="0px"
	 viewBox="0 0 512 512" style="enable-background:new 0 0 512 512;" xml:space="preserve">
<circle style="fill:#00E7F1;" cx="256" cy="256" r="256"/>
<path style="fill:#00B7BE;" d="M498.753,337.479L350.27,188.91c-0.17-0.2-0.35-0.39-0.54-0.57c-0.14-0.15-0.29-0.28-0.43-0.42
	c-0.21-0.2-0.42-0.4-0.64-0.58c-0.16-0.14-0.32-0.27-0.48-0.41c-1.73-1.42-3.67-2.57-5.75-3.39c-0.23-0.1-0.46-0.18-0.69-0.27
	c-0.39-0.14-0.79-0.27-1.19-0.38c-0.01-0.01-0.02-0.01-0.02-0.01c-0.21-0.07-0.43-0.12-0.64-0.18c-0.12-0.03-0.24-0.06-0.36-0.09
	c-0.21-0.05-0.42-0.1-0.63-0.14c-0.24-0.05-0.49-0.1-0.73-0.14c-0.072-0.012-0.141-0.021-0.211-0.033L209.833,53.168l-11.979-6.273
	c-4.311-2.258-9.636-0.593-11.893,3.718l-54.135,103.378c-1.845,3.524-1.07,7.725,1.629,10.375L152.006,182H83.171
	c-11.956,0-21.648,9.692-21.648,21.649v144.008H58.03c-3.094,0-5.625,2.531-5.625,5.625v12.852c0,1.665,0.733,3.167,1.893,4.198
	l133.781,132.541l0,0c4.008,1.1,8.056,2.105,12.139,3.014c0.188,0.042,0.377,0.082,0.566,0.123c2.323,0.511,4.658,0.989,7.004,1.437
	c0.396,0.076,0.792,0.154,1.189,0.228c1.136,0.211,2.275,0.414,3.416,0.61c0.65,0.112,1.303,0.217,1.955,0.324
	c1.637,0.269,3.279,0.521,4.927,0.758c0.923,0.133,1.846,0.265,2.772,0.388c0.889,0.118,1.779,0.231,2.671,0.34
	c1.213,0.148,2.429,0.286,3.647,0.417c0.872,0.094,1.745,0.185,2.62,0.27c1.437,0.139,2.877,0.268,4.322,0.384
	c0.656,0.053,1.314,0.103,1.972,0.15c1.701,0.123,3.404,0.235,5.113,0.324c0.249,0.013,0.497,0.027,0.746,0.04
	c1.823,0.09,3.653,0.156,5.486,0.208c0.51,0.015,1.02,0.028,1.53,0.039C252.097,511.97,254.045,512,256,512
	C368.898,512,464.72,438.915,498.753,337.479z"/>
<rect x="155.31" y="163" style="fill:#3C3B41;" width="14.801" height="21.333"/>
<rect x="249.71" y="163" style="fill:#2A2A2C;" width="14.801" height="21.333"/>
<path style="fill:#00A753;" d="M451.814,310.884l-22.804-25.835l-29.46-10.419l-45.867-80.871
	c-3.708-7.22-11.142-11.759-19.258-11.759H83.171c-11.956,0-21.649,9.692-21.649,21.649v161.129h390.292V310.884z"/>
<path style="fill:#008C4A;" d="M451.809,310.884l0.001,53.896h-241.9V182h124.52c0.36,0,0.72,0.01,1.06,0.03
	c0.06-0.01,0.11,0,0.16,0c0.1,0.01,0.21,0.01,0.31,0.02c0.24,0.02,0.49,0.04,0.73,0.07c0.23,0.02,0.47,0.05,0.7,0.09
	c0.02-0.01,0.05,0,0.07,0.01c0.24,0.03,0.47,0.07,0.71,0.11s0.49,0.09,0.73,0.14c0.21,0.04,0.42,0.09,0.63,0.14
	c0.12,0.03,0.24,0.06,0.36,0.09c0.21,0.06,0.43,0.11,0.64,0.18c0,0,0.01,0,0.02,0.01c0.4,0.11,0.8,0.24,1.19,0.38
	c0.23,0.09,0.46,0.17,0.69,0.27c2.08,0.82,4.02,1.97,5.75,3.39c0.16,0.14,0.32,0.27,0.48,0.41c0.22,0.18,0.43,0.38,0.64,0.58
	c0.14,0.14,0.29,0.27,0.43,0.42c0.19,0.18,0.37,0.37,0.54,0.57c0.12,0.12,0.23,0.24,0.34,0.36c0.21,0.23,0.41,0.47,0.61,0.72
	c0.02,0.01,0.03,0.03,0.03,0.04c0.12,0.14,0.23,0.28,0.33,0.42c0.19,0.23,0.37,0.48,0.54,0.73c0.11,0.15,0.21,0.31,0.31,0.46
	c0.19,0.26,0.36,0.53,0.51,0.8c0.09,0.14,0.18,0.29,0.26,0.44c0.09,0.14,0.18,0.29,0.24,0.44c0.09,0.14,0.16,0.29,0.24,0.44
	l5.93,10.46h0.01l39.93,70.41l29.46,10.419L451.809,310.884z"/>
<rect x="287.62" y="199.91" style="fill:#007539;" width="7.206" height="164.86"/>
<rect x="61.52" y="316.83" style="fill:#FFDB2D;" width="390.29" height="47.944"/>
<rect x="209.83" y="316.83" style="fill:#FEC000;" width="241.98" height="47.944"/>
<circle style="fill:#3C3B41;" cx="146.53" cy="364.78" r="41.22"/>
<circle style="fill:#FFFFFF;" cx="146.53" cy="364.78" r="24.906"/>
<circle style="fill:#2A2A2C;" cx="361.66" cy="364.78" r="41.22"/>
<circle style="fill:#E1E1E3;" cx="361.66" cy="364.78" r="24.906"/>
<path style="fill:#E02424;" d="M359.623,204.219H61.525v-0.567c0-11.962,9.694-21.656,21.646-21.656h251.251
	c0.413,0,0.826,0.01,1.23,0.029c7.638,0.442,14.517,4.881,18.034,11.731L359.623,204.219z"/>
<g>
	<path style="fill:#C2001B;" d="M359.62,204.22H209.91V182h124.52c0.36,0,0.72,0.01,1.06,0.03c0.06-0.01,0.11,0,0.16,0
		c0.1,0.01,0.21,0.01,0.31,0.02c0.24,0.02,0.49,0.04,0.73,0.07c0.23,0.02,0.47,0.05,0.7,0.09c0.02-0.01,0.05,0,0.07,0.01
		c0.24,0.03,0.47,0.07,0.71,0.11s0.49,0.09,0.73,0.14c0.21,0.04,0.42,0.09,0.63,0.14c0.12,0.03,0.24,0.06,0.36,0.09
		c0.21,0.06,0.43,0.11,0.64,0.18c0,0,0.01,0,0.02,0.01c0.4,0.11,0.8,0.24,1.19,0.38c0.23,0.09,0.46,0.17,0.69,0.27
		c2.08,0.82,4.02,1.97,5.75,3.39c0.16,0.14,0.32,0.27,0.48,0.41c0.22,0.18,0.43,0.38,0.64,0.58c0.14,0.14,0.29,0.27,0.43,0.42
		c0.19,0.18,0.37,0.37,0.54,0.57c0.12,0.12,0.23,0.24,0.34,0.36c0.21,0.23,0.41,0.47,0.61,0.72c0.02,0.01,0.03,0.03,0.03,0.04
		c0.12,0.14,0.23,0.28,0.33,0.42c0.19,0.23,0.37,0.48,0.54,0.73c0.11,0.15,0.21,0.31,0.31,0.46c0.19,0.26,0.36,0.53,0.51,0.8
		c0.09,0.14,0.18,0.29,0.26,0.44c0.09,0.14,0.18,0.29,0.24,0.44c0.1,0.15,0.17,0.29,0.25,0.44L359.62,204.22z"/>
	<path style="fill:#C2001B;" d="M453.971,371.758h-24.156c-3.094,0-5.625-2.531-5.625-5.625v-12.852
		c0-3.094,2.531-5.625,5.625-5.625h24.156c3.094,0,5.625,2.531,5.625,5.625v12.852C459.596,369.227,457.065,371.758,453.971,371.758
		z"/>
</g>
<path style="fill:#E02424;" d="M82.186,371.758H58.029c-3.094,0-5.625-2.531-5.625-5.625v-12.852c0-3.094,2.531-5.625,5.625-5.625
	h24.156c3.094,0,5.625,2.531,5.625,5.625v12.852C87.811,369.227,85.279,371.758,82.186,371.758z"/>
<rect x="95.3" y="217.21" style="fill:#FFFFFF;" width="160.46" height="77.62"/>
<rect x="209.91" y="217.21" style="fill:#E1E1E3;" width="45.84" height="77.62"/>
<g>
	<rect x="104.73" y="238.32" style="fill:#00D9E0;" width="66.15" height="49.51"/>
	<rect x="180.17" y="238.32" style="fill:#00D9E0;" width="66.15" height="49.51"/>
</g>
<rect x="209.91" y="238.32" style="fill:#00B7BE;" width="36.42" height="49.52"/>
<circle style="fill:#C2001B;" cx="106.76" cy="238.32" r="11.461"/>
<circle style="fill:#C8C6CC;" cx="129.68" cy="238.32" r="11.461"/>
<circle style="fill:#C2001B;" cx="152.6" cy="238.32" r="11.461"/>
<circle style="fill:#C8C6CC;" cx="175.53" cy="238.32" r="11.461"/>
<circle style="fill:#C2001B;" cx="198.45" cy="238.32" r="11.461"/>
<circle style="fill:#AEADB3;" cx="221.37" cy="238.32" r="11.461"/>
<circle style="fill:#860010;" cx="244.29" cy="238.32" r="11.461"/>
<rect x="118.22" y="215.39" style="fill:#FFFFFF;" width="114.61" height="22.932"/>
<rect x="209.91" y="215.39" style="fill:#E1E1E3;" width="22.923" height="22.932"/>
<g>
	<rect x="95.3" y="215.39" style="fill:#E02424;" width="22.923" height="22.932"/>
	<rect x="141.14" y="215.39" style="fill:#E02424;" width="22.923" height="22.932"/>
	<rect x="186.99" y="215.39" style="fill:#E02424;" width="22.923" height="22.932"/>
</g>
<rect x="232.83" y="215.39" style="fill:#C2001B;" width="22.923" height="22.932"/>
<polygon style="fill:#E1E1E3;" points="451.809,293.109 451.809,310.884 429.01,310.884 429.01,285.049 "/>
<polygon style="fill:#2A2A2C;" points="315.322,275.976 384.338,275.976 349.514,213.166 315.322,213.166 "/>
<rect x="315.32" y="285.05" style="fill:#E1E1E3;" width="21.433" height="10.703"/>
<path style="fill:#FFDB2D;" d="M185.96,50.614l-54.135,103.378c-2.258,4.311-0.593,9.636,3.718,11.893l11.979,6.273l128.849-0.014
	c6.715-0.001,10.664-7.543,6.84-13.062l-73.38-105.913l-11.979-6.273C193.543,44.638,188.218,46.303,185.96,50.614z"/>
<path style="fill:#FEC000;" d="M147.527,172.156l-11.982-6.274c-4.315-2.26-5.979-7.581-3.724-11.888l27.07-51.693l99.716,52.217
	c1.043-0.873,1.939-1.959,2.61-3.241c0.583-1.114,0.954-2.295,1.119-3.471c6.695,5.59,13.429,8.824,10.684,14.068l-0.079,0.15
	l10.806,5.658c-1.348,2.573-4.017,4.465-7.375,4.465L147.527,172.156z"/>
<path style="fill:#FF9A00;" d="M185.953,50.628l-54.12,103.349c-2.262,4.319-0.594,9.654,3.725,11.916l11.965,6.266l62.31-118.99
	l-11.965-6.266C193.549,44.641,188.214,46.309,185.953,50.628z"/>
<path style="fill:#E67500;" d="M147.527,172.156l-11.982-6.274c-4.315-2.26-5.979-7.581-3.724-11.888l27.07-51.693l19.789,10.363
	L147.527,172.156z"/>
<path style="fill:#FFF5CB;" d="M164.892,163.778c-6.606-9.846,8.833-11.419,14.652-22.532c5.819-11.113,2.734-12.729,8.553-23.841
	c5.82-11.114,8.906-9.499,14.726-20.613c5.82-11.114-1.682-24.699,10.176-24.881c13.139-0.202,5.77,13.871,13.09,24.784
	c7.32,10.913,10.262,8.683,17.581,19.597c7.321,10.915,4.379,13.145,11.7,24.059c7.321,10.915,21.423,14.327,17.656,21.522
	c-3.768,7.195-14.603-2.452-27.742-2.252s-13.297,3.887-26.436,4.087c-13.141,0.2-13.673-6.765-26.559-3.226
	C177.528,164.536,172.214,174.692,164.892,163.778z"/>
<path style="fill:#FFE670;" d="M164.895,163.776c-6.611-9.839,8.831-11.42,14.647-22.526c5.793-11.062,2.761-12.717,8.476-23.696
	l70.589,36.965c1.043-0.873,1.939-1.959,2.61-3.241c0.583-1.114,0.954-2.295,1.119-3.471c6.695,5.59,13.429,8.824,10.684,14.068
	l-0.079,0.15c-3.84,6.902-14.618-2.596-27.654-2.402c-13.139,0.196-13.301,3.885-26.44,4.08
	c-13.143,0.205-13.678-6.757-26.558-3.226C177.525,164.531,172.213,174.695,164.895,163.776z"/>
<circle style="fill:#C2001B;" cx="206.11" cy="151.8" r="14.178"/>
<g>
	<circle style="fill:#E02424;" cx="207.28" cy="97.16" r="12.159"/>
	<circle style="fill:#E02424;" cx="251.69" cy="146.28" r="10.759"/>
</g>
<g>
	<path style="fill:#5A422D;" d="M182.722,132.511c-3.329-1.743-8.148,0.891-10.763,5.885c-2.615,4.994-2.036,10.455,1.293,12.198
		c2.337,1.224,5.405,0.284,7.932-2.108l3.207,1.68l4.323-8.256l-3.207-1.68C186.034,136.791,185.058,133.734,182.722,132.511z"/>
	<path style="fill:#5A422D;" d="M233.473,151.699c-2.79-1.461-6.827,0.747-9.019,4.931c-2.191,4.184-1.706,8.761,1.084,10.221
		c1.958,1.025,4.529,0.238,6.646-1.766l2.688,1.407l3.623-6.918l-2.687-1.407C236.249,155.286,235.431,152.725,233.473,151.699z"/>
</g>
<path style="fill:#8A6746;" d="M233.52,111.465c-3.099-1.623-7.585,0.83-10.019,5.479c-2.434,4.649-1.895,9.733,1.204,11.356
	c2.175,1.139,5.031,0.265,7.384-1.962l2.986,1.563l4.025-7.686l-2.986-1.563C236.603,115.45,235.695,112.604,233.52,111.465z"/>
<path style="fill:#C2001B;" d="M246.698,155.809c-3.979-2.084-6.123-6.316-5.723-10.523l17.632,9.233
	C255.377,157.245,250.677,157.893,246.698,155.809z"/>
<rect x="287.62" y="316.83" style="fill:#D9A600;" width="7.206" height="47.944"/>
<g>
</g>
<g>
</g>
<g>
</g>
<g>
</g>
<g>
</g>
<g>
</g>
<g>
</g>
<g>
</g>
<g>
</g>
<g>
</g>
<g>
</g>
<g>
</g>
<g>
</g>
<g>
</g>
<g>
</g>
</svg>
